<?xml version="1.0" encoding="utf-8"?>
<!-- Generator: Adobe Illustrator 19.0.0, SVG Export Plug-In . SVG Version: 6.00 Build 0)  -->
<svg version="1.1" id="Слой_1" xmlns="http://www.w3.org/2000/svg" xmlns:xlink="http://www.w3.org/1999/xlink" x="0px" y="0px"
	 viewBox="-607 -64 64 64" style="enable-background:new -607 -64 64 64;" xml:space="preserve">
<style type="text/css">
	.st0{fill:#507298;}
	.st1{fill:#FFFFFF;}
	.st2{fill:#C75C5C;}
	.st3{opacity:0.2;}
	.st4{fill:#231F20;}
	.st5{fill:#22313F;}
</style>
<g id="Layer_1">
	<g>
		<circle class="st0" cx="-575" cy="-32" r="32"/>
	</g>
	<g>
		<path class="st1" d="M-577.9-19.5c-0.5,0-0.9-0.2-1.2-0.6l-10.3-14.6l-7.8,5.2c-0.7,0.5-1.6,0.3-2.1-0.4s-0.3-1.6,0.4-2.1l9-6
			c0.7-0.5,1.6-0.3,2.1,0.4l9.7,13.8l10.7-19.8c0.2-0.4,0.7-0.7,1.2-0.8c0.5,0,1,0.2,1.3,0.6l13,16.9c0.5,0.7,0.4,1.6-0.3,2.1
			c-0.7,0.5-1.6,0.4-2.1-0.3l-11.6-15.1l-10.8,19.9C-576.8-19.8-577.3-19.5-577.9-19.5C-577.8-19.5-577.8-19.5-577.9-19.5z"/>
	</g>
	<g>
		<circle class="st2" cx="-566" cy="-40.9" r="4.4"/>
	</g>
	<g class="st3">
		<g>
			<path class="st4" d="M-577.9-17.5c-0.5,0-0.9-0.2-1.2-0.6l-10.3-14.6l-7.8,5.2c-0.7,0.5-1.6,0.3-2.1-0.4
				c-0.5-0.7-0.3-1.6,0.4-2.1l9-6c0.7-0.5,1.6-0.3,2.1,0.4l9.7,13.8l10.7-19.8c0.2-0.4,0.7-0.7,1.2-0.8c0.5,0,1,0.2,1.3,0.6l13,16.9
				c0.5,0.7,0.4,1.6-0.3,2.1s-1.6,0.4-2.1-0.3l-11.6-15l-10.8,19.8C-576.8-17.8-577.3-17.5-577.9-17.5
				C-577.8-17.5-577.8-17.5-577.9-17.5z"/>
		</g>
	</g>
	<g>
		<path class="st1" d="M-577.9-19.5c-0.5,0-0.9-0.2-1.2-0.6l-10.3-14.6l-7.8,5.2c-0.7,0.5-1.6,0.3-2.1-0.4s-0.3-1.6,0.4-2.1l9-6
			c0.7-0.5,1.6-0.3,2.1,0.4l9.7,13.8l10.7-19.8c0.2-0.4,0.7-0.7,1.2-0.8c0.5,0,1,0.2,1.3,0.6l13,16.9c0.5,0.7,0.4,1.6-0.3,2.1
			c-0.7,0.5-1.6,0.4-2.1-0.3l-11.6-15.1l-10.8,19.9C-576.8-19.8-577.3-19.5-577.9-19.5C-577.8-19.5-577.8-19.5-577.9-19.5z"/>
	</g>
	<g class="st3">
		<circle class="st4" cx="-566" cy="-38.9" r="4.4"/>
	</g>
	<g>
		<circle class="st5" cx="-566" cy="-40.9" r="4.4"/>
	</g>
</g>
<g id="Layer_2">
</g>
</svg>
